# xmcd
#
# Track frame offsets:
# 150
# 13615
# 28330
# 46922
# 65150
# 82922
# 97902
# 107505
# 128590
# 144355
# 165825
# 181915
#
# Disc length: 2602 seconds
#
#
# Revision: 3
# Processed by: cddbd v1.4PL0 Copyright (c) Steve Scherf et al.
# Submitted via: FreeRIP 2.30 
#
DISCID=8b0a280c
DTITLE=John Denver - Seine groﬂen Erfolge CD 2
DYEAR=1900
DGENRE=Country
TTITLE0=Annie's Song
TTITLE1=Welcome to My Morning
TTITLE2=Fly Away
TTITLE3=Like a Sad Song
TTITLE4=Looking For Space
TTITLE5=Thank God I'm a Country Boy
TTITLE6=Grandma's Feather Bed
TTITLE7=Back Home Again
TTITLE8=I'm Sorry
TTITLE9=My Sweet Lady
TTITLE10=Calypso
TTITLE11=This Old Guitar
EXTD=
EXTT0=
EXTT1=
EXTT2=
EXTT3=
EXTT4=
EXTT5=
EXTT6=
EXTT7=
EXTT8=
EXTT9=
EXTT10=
EXTT11=
PLAYORDER=
